<svg xmlns="http://www.w3.org/2000/svg" width="500" height="500" viewBox="0 0 500 500"
    version="1.1">
    <path
        d="M 14.562 197.765 C 15.147 198.169, 16.437 201.121, 17.429 204.325 C 18.422 207.529, 20.644 211.985, 22.367 214.228 C 25.780 218.668, 34.182 223.513, 40.254 224.542 C 42.319 224.891, 43.803 225.510, 43.551 225.917 C 43.300 226.324, 45.660 226.478, 48.797 226.260 C 51.934 226.042, 53.981 226.232, 53.347 226.682 C 52.713 227.132, 57.213 227.518, 63.347 227.541 C 72.995 227.576, 75.092 227.892, 78.884 229.880 C 85.912 233.563, 90.204 238.999, 93.371 248.226 C 94.178 250.577, 95.131 253.243, 95.488 254.150 C 96.016 255.493, 95.486 255.800, 92.637 255.800 C 90.560 255.800, 88.919 255.231, 88.600 254.400 C 87.892 252.555, 84.531 252.612, 82.643 254.500 C 80.790 256.353, 80 256.403, 80 254.667 C 80 253.852, 78.833 253.333, 77 253.333 C 75.167 253.333, 74 253.852, 74 254.667 C 74 255.400, 73.100 256, 72 256 C 70.037 256, 70 256.667, 70 292.500 L 70 329 85 329.150 C 93.250 329.233, 100.563 329.345, 101.250 329.400 C 102.235 329.479, 102.502 318.882, 102.510 279.500 C 102.515 252, 102.887 228.924, 103.337 228.220 C 103.970 227.229, 110.171 226.962, 130.827 227.035 L 157.500 227.128 157.776 212.064 L 158.052 197 85.776 197.015 C 46.024 197.024, 13.978 197.361, 14.562 197.765 M 263.125 252.625 C 261.711 255.729, 271.233 269.548, 275.375 270.405 C 276.956 270.732, 287.799 271, 299.470 271 C 319.147 271, 320.817 271.140, 322.433 272.926 C 324.411 275.112, 324.218 277.877, 322 279.138 C 321.175 279.607, 317.822 280.959, 314.549 282.142 C 308.670 284.268, 303.368 288.437, 301.144 292.684 C 299.404 296.007, 299.773 301.535, 302 305.500 C 303.100 307.458, 304 309.545, 304 310.137 C 304 311.123, 308.770 317.720, 311.701 320.786 C 312.377 321.494, 313.718 323.406, 314.681 325.036 C 316.429 327.996, 316.444 328, 326.101 328 C 336.786 328, 340.454 326.798, 340.579 323.254 C 340.622 322.019, 340.456 321.210, 340.210 321.457 C 339.704 321.963, 337 319.483, 337 318.512 C 337 318.166, 337.563 318.206, 338.250 318.601 C 338.976 319.019, 339.151 318.939, 338.667 318.410 C 338.208 317.910, 337.308 317.489, 336.667 317.476 C 336.025 317.463, 335.562 316.680, 335.637 315.737 C 335.712 314.793, 335.415 314.244, 334.975 314.516 C 334.535 314.787, 332.677 313.095, 330.845 310.755 C 329.014 308.415, 327.174 306.350, 326.757 306.167 C 326.341 305.983, 326 304.816, 326 303.572 C 326 301.103, 328.040 299.007, 332.137 297.266 C 335.582 295.803, 342.817 289.179, 344.443 286 C 346.891 281.213, 345.655 265, 342.842 265 C 342.379 265, 342 264.403, 342 263.674 C 342 262.945, 340.889 261.305, 339.531 260.029 C 338.173 258.753, 337.306 257.314, 337.605 256.830 C 337.904 256.346, 337.778 256.015, 337.324 256.094 C 335.308 256.444, 333.933 255.918, 334.493 255.011 C 334.856 254.424, 334.407 254.290, 333.388 254.681 C 332.132 255.164, 331.891 254.985, 332.490 254.015 C 333.037 253.131, 332.923 252.930, 332.146 253.410 C 330.543 254.400, 326.822 253.097, 327.611 251.821 C 328.033 251.137, 327.149 251.028, 325 251.500 C 323.212 251.893, 321.988 251.828, 322.279 251.357 C 322.571 250.886, 309.598 250.500, 293.451 250.500 C 264.487 250.500, 264.080 250.529, 263.125 252.625 M 122.543 252.931 C 122.226 253.443, 122.494 254.187, 123.138 254.585 C 123.857 255.030, 124.041 254.876, 123.616 254.188 C 123.124 253.391, 126.193 252.974, 134.211 252.747 L 145.500 252.428 134.309 252.214 C 128.154 252.096, 122.859 252.419, 122.543 252.931 M 176.651 252.750 C 176.394 253.162, 179.855 253.379, 184.342 253.231 C 198.360 252.768, 199.946 252.343, 188.309 252.168 C 182.154 252.076, 176.908 252.338, 176.651 252.750 M 443.583 253.643 C 442.708 255.924, 443.201 255.980, 445.250 253.833 C 446.583 252.437, 446.668 252, 445.607 252 C 444.841 252, 443.930 252.739, 443.583 253.643 M 375 254 C 375.825 254.533, 377.625 254.945, 379 254.914 C 381.290 254.864, 381.332 254.787, 379.500 254 C 378.400 253.527, 376.600 253.116, 375.500 253.086 C 373.849 253.040, 373.762 253.200, 375 254 M 143.087 255.752 C 142.316 256.577, 141.326 259.108, 140.886 261.376 C 139.691 267.546, 139.791 312, 141 312 C 141.642 312, 142 302.344, 142 285.032 L 142 258.064 144.627 256.688 C 146.454 255.730, 146.833 255.150, 145.872 254.781 C 145.111 254.489, 143.859 254.926, 143.087 255.752 M 195.543 258.250 C 195.271 259.488, 194.925 272.200, 194.774 286.500 C 194.543 308.449, 194.240 313.005, 192.831 315.741 C 191.913 317.524, 191.532 319.211, 191.984 319.490 C 194.409 320.989, 195.380 312.527, 195.770 286.522 C 195.992 271.684, 196.601 258.746, 197.122 257.772 C 197.740 256.616, 197.717 256, 197.054 256 C 196.495 256, 195.815 257.012, 195.543 258.250 M 181.437 290 C 181.437 304.575, 181.577 310.538, 181.747 303.250 C 181.918 295.962, 181.918 284.038, 181.747 276.750 C 181.577 269.462, 181.437 275.425, 181.437 290 M 218 319.313 C 218 319.485, 219.463 320.948, 221.250 322.563 L 224.500 325.500 221.563 322.250 C 218.825 319.221, 218 318.540, 218 319.313 M 187.489 322.303 C 185.845 323.473, 184.275 324.671, 184 324.965 C 182.917 326.124, 180.122 326.405, 171 326.271 C 162.794 326.150, 162.045 326.269, 165.500 327.142 C 174.420 329.397, 185.573 327.271, 190.758 322.327 C 193.038 320.152, 190.537 320.134, 187.489 322.303 M 122.499 325.002 C 121.331 326.892, 127.140 328, 137.315 327.827 L 147.500 327.654 136 326.959 C 122.052 326.115, 122.744 326.223, 123.500 325 C 123.840 324.450, 123.893 324, 123.618 324 C 123.343 324, 122.839 324.451, 122.499 325.002"
        stroke="none" fill="#00b5cb" fill-rule="evenodd" />
    <path
        d="M 0 250.002 L 0 500.004 250.250 499.752 L 500.500 499.500 500.752 249.750 L 501.004 0 250.502 0 L 0 0 0 250.002 M 0.492 250.500 C 0.492 388, 0.608 444.101, 0.750 375.170 C 0.892 306.238, 0.892 193.738, 0.750 125.170 C 0.608 56.601, 0.492 113, 0.492 250.500 M 13.512 197.980 C 12.811 199.115, 15.129 206.372, 17.976 211.953 C 23.174 222.143, 38.637 227.866, 61.250 227.969 L 68 228 68 279.024 L 68 330.047 85.250 329.774 L 102.500 329.500 102.500 291 C 102.500 269.825, 102.612 246.995, 102.750 240.266 L 103 228.032 130.250 227.766 L 157.500 227.500 157.776 212.250 L 158.052 197 86.085 197 C 40.176 197, 13.899 197.355, 13.512 197.980 M 70 242 C 70 255.333, 70.095 256, 72 256 C 73.100 256, 74 255.400, 74 254.667 C 74 253.852, 75.167 253.333, 77 253.333 C 78.833 253.333, 80 253.852, 80 254.667 C 80 256.403, 80.790 256.353, 82.643 254.500 C 84.531 252.612, 87.892 252.555, 88.600 254.400 C 88.919 255.231, 90.560 255.800, 92.637 255.800 C 95.486 255.800, 96.016 255.493, 95.488 254.150 C 95.131 253.243, 94.178 250.577, 93.371 248.226 C 91.581 243.010, 88.269 237.237, 85.405 234.339 C 82.480 231.380, 75.620 228, 72.540 228 L 70 228 70 242 M 263.268 252.312 C 262.282 254.476, 262.739 255.598, 267.328 262.281 C 271.222 267.950, 273.210 269.958, 275.375 270.405 C 276.956 270.732, 287.799 271, 299.470 271 C 319.147 271, 320.817 271.140, 322.433 272.926 C 324.411 275.112, 324.218 277.877, 322 279.138 C 321.175 279.607, 317.822 280.959, 314.549 282.142 C 308.670 284.268, 303.368 288.437, 301.144 292.684 C 299.404 296.007, 299.773 301.535, 302 305.500 C 303.100 307.458, 304 309.545, 304 310.137 C 304 311.123, 308.770 317.720, 311.701 320.786 C 312.377 321.494, 313.718 323.406, 314.681 325.036 C 316.427 327.993, 316.453 328, 326.016 328 C 336.585 328, 340.994 326.673, 340.968 323.500 C 340.958 322.400, 337.789 317.284, 333.925 312.131 C 330.061 306.979, 327.040 302.029, 327.213 301.133 C 327.386 300.237, 329.285 298.675, 331.435 297.663 C 337.167 294.964, 344.583 287.165, 345.888 282.463 C 348.382 273.483, 346.355 264.536, 340.520 258.763 C 338.999 257.258, 335.222 254.783, 332.127 253.263 L 326.500 250.500 295.439 250.187 L 264.379 249.874 263.268 252.312 M 393.750 252.112 C 392.788 252.655, 392 252.797, 392 252.427 C 392 252.058, 391.438 252.208, 390.750 252.762 C 388.267 254.762, 383.312 255.056, 377.516 253.546 C 374.289 252.706, 371.486 252.181, 371.287 252.380 C 371.088 252.579, 371.365 253.812, 371.902 255.121 C 372.439 256.429, 374.744 264.025, 377.026 272 C 379.307 279.975, 382.645 291.450, 384.443 297.500 C 386.242 303.550, 388.790 312.435, 390.107 317.245 L 392.500 325.990 405.367 325.995 C 417.145 326, 418.191 325.852, 417.735 324.250 C 410.120 297.497, 396.674 252.324, 396.173 251.812 C 395.803 251.434, 394.712 251.569, 393.750 252.112 M 466.992 252.015 C 466.171 252.528, 463.100 253.449, 460.167 254.062 C 455.743 254.986, 453.972 254.894, 449.769 253.519 C 444.676 251.854, 443.031 252.337, 443.031 255.500 C 443.031 256.050, 443.425 255.878, 443.906 255.118 C 444.607 254.012, 444.893 254.111, 445.340 255.618 C 447.609 263.271, 459.804 305.660, 462.349 314.746 L 465.500 325.991 478.367 325.996 C 490.144 326, 491.191 325.852, 490.738 324.250 C 490.466 323.288, 488.645 317.100, 486.692 310.500 C 484.740 303.900, 480.157 288.150, 476.509 275.500 C 472.862 262.850, 469.563 252.181, 469.180 251.792 C 468.797 251.402, 467.812 251.503, 466.992 252.015 M 122.622 252.712 C 122.230 253.103, 122.943 254.202, 124.205 255.155 L 126.500 256.886 126.500 289.500 L 126.500 322.114 124.012 323.991 L 121.523 325.868 124.327 326.934 C 125.869 327.520, 131.618 328, 137.104 328 L 147.078 328 145 325.770 C 141.505 322.018, 141.524 322.255, 141.798 285.282 L 142 258.064 144.750 256.572 C 146.262 255.751, 146.938 255.062, 146.250 255.040 C 145.563 255.018, 145 254.325, 145 253.500 C 145 252.259, 143.130 252, 134.167 252 C 128.208 252, 123.013 252.320, 122.622 252.712 M 176.773 252.561 C 176.464 252.869, 177.289 254.198, 178.606 255.515 L 181 257.909 181 289 L 181 320.091 178.545 322.545 C 177.195 323.895, 175.231 325, 174.180 325 C 169.653 325, 163.988 317.394, 160.951 307.238 C 159.800 303.389, 157.476 300.102, 156.616 301.107 C 156.432 301.323, 157.005 306.821, 157.891 313.324 C 159.219 323.081, 159.850 325.352, 161.500 326.314 C 162.656 326.987, 167.720 327.483, 173.500 327.489 C 181.817 327.498, 184.005 327.166, 186.500 325.513 C 190.868 322.620, 191.715 321.645, 191.201 320.102 C 190.944 319.331, 191.196 319.003, 191.773 319.360 C 194.343 320.948, 195.358 312.968, 196.077 285.500 C 196.480 270.100, 196.928 256.931, 197.072 256.236 C 197.225 255.495, 198.197 255.181, 199.417 255.476 C 200.563 255.754, 200.938 255.723, 200.250 255.407 C 199.563 255.092, 199 254.196, 199 253.417 C 199 252.282, 196.846 252, 188.167 252 C 182.208 252, 177.081 252.252, 176.773 252.561 M 227.667 252.667 C 226.745 253.588, 226.825 255.226, 227.763 254.647 C 228.544 254.164, 247.989 319.687, 248.270 323.750 C 248.423 325.964, 248.642 326, 261.829 326 C 274.137 326, 275.188 325.857, 274.685 324.250 C 273.320 319.892, 259.615 273.372, 256.788 263.500 C 255.055 257.450, 253.522 252.340, 253.380 252.145 C 253.239 251.949, 250.418 252.476, 247.112 253.315 C 241.090 254.843, 234.138 254.680, 230.874 252.933 C 228.798 251.821, 228.534 251.800, 227.667 252.667 M 353.672 311.514 C 351.652 318.397, 350 324.472, 350 325.014 C 350 325.590, 353.801 326, 359.137 326 L 368.274 326 363.779 321.194 C 358.386 315.429, 356.546 310.484, 357.330 303.862 C 357.647 301.188, 357.779 299, 357.625 299 C 357.471 299, 355.692 304.631, 353.672 311.514 M 210.250 312.088 C 208.463 318.461, 207 324.199, 207 324.838 C 207 325.637, 209.879 326, 216.208 326 L 225.416 326 221.325 321.750 C 215.825 316.037, 214.642 313.566, 214.024 306.500 L 213.500 300.500 210.250 312.088 M 426.246 313 C 424.457 319.325, 422.995 324.837, 422.997 325.250 C 422.999 325.663, 427.107 326, 432.127 326 L 441.255 326 437.240 321.644 C 431.912 315.865, 430.801 313.591, 430.093 307.025 L 429.498 301.500 426.246 313"
        stroke="none" fill="#000000" fill-rule="evenodd" />
    <path
        d="M 13 198.462 C 13 200.214, 17.750 211.217, 19.922 214.500 C 23.063 219.244, 33.053 224.712, 40 225.487 L 44.500 225.990 39.740 224.596 C 27.283 220.948, 20.525 214.735, 17.338 204 C 16.358 200.700, 14.981 198, 14.278 198 C 13.575 198, 13 198.208, 13 198.462 M 47.264 226.718 C 48.784 226.947, 51.034 226.941, 52.264 226.704 C 53.494 226.467, 52.250 226.279, 49.500 226.286 C 46.750 226.294, 45.744 226.488, 47.264 226.718 M 61.750 227.740 L 68 228.095 68 279.048 L 68 330 84.250 329.778 L 100.500 329.556 85.250 329.252 L 70 328.948 70 277.974 L 70 227 62.750 227.193 L 55.500 227.385 61.750 227.740 M 116.750 227.747 C 124.037 227.918, 135.963 227.918, 143.250 227.747 C 150.537 227.577, 144.575 227.437, 130 227.437 C 115.425 227.437, 109.463 227.577, 116.750 227.747 M 280.310 250.748 C 287.905 250.918, 300.055 250.918, 307.310 250.747 C 314.564 250.576, 308.350 250.437, 293.500 250.438 C 278.650 250.438, 272.714 250.578, 280.310 250.748 M 247 253.662 C 242.531 255.105, 234.296 255.014, 230.638 253.480 C 228.235 252.473, 228.209 252.357, 237.427 283.740 C 241.427 297.358, 245.780 312.435, 247.100 317.245 L 249.500 325.990 262.309 325.995 C 269.354 325.998, 274.902 325.651, 274.638 325.224 C 274.079 324.318, 258.760 272.219, 255.630 260.577 C 254.458 256.220, 253.050 252.554, 252.500 252.432 C 251.950 252.309, 249.475 252.863, 247 253.662 M 331 254.129 C 335.885 256.286, 342 261.605, 342 263.696 C 342 264.413, 342.392 265, 342.870 265 C 344.238 265, 346.274 273.528, 345.824 277.378 C 345.601 279.293, 345.774 280.640, 346.209 280.371 C 347.385 279.644, 347.166 271.794, 345.862 267.899 C 345.236 266.030, 343.633 263.030, 342.299 261.234 C 339.779 257.840, 330.615 251.973, 328 252.080 C 327.175 252.114, 328.525 253.036, 331 254.129 M 372.219 254.090 C 372.501 255.416, 376.233 268.425, 380.513 283 C 384.793 297.575, 389.241 313.207, 390.397 317.737 L 392.500 325.975 405.357 325.987 C 417.200 325.999, 418.160 325.862, 417.527 324.250 C 417.149 323.288, 412.337 306.975, 406.832 288 C 401.328 269.025, 396.521 253.179, 396.149 252.787 C 395.777 252.394, 393.679 252.712, 391.487 253.493 C 385.902 255.481, 377.021 255.404, 374.075 253.340 C 371.763 251.721, 371.718 251.739, 372.219 254.090 M 463 253.650 C 458.553 255.074, 451.767 254.998, 447.092 253.471 C 445.032 252.798, 444.763 252.960, 445.227 254.592 C 445.525 255.641, 448.266 265.050, 451.317 275.500 C 463.623 317.650, 465 322.556, 465 324.244 C 465 325.829, 466.273 326, 478.107 326 C 489.793 326, 491.146 325.824, 490.591 324.376 C 490.248 323.482, 485.892 308.745, 480.912 291.626 C 469.622 252.819, 469.575 252.669, 468.438 252.417 C 467.922 252.302, 465.475 252.857, 463 253.650 M 124.927 255.635 C 126.924 258.173, 127 259.419, 127 289.500 C 127 319.099, 126.897 320.862, 125.022 323.245 L 123.044 325.759 126.147 326.379 C 131.005 327.351, 145 327.106, 145 326.050 C 145 325.527, 144.287 324.700, 143.415 324.212 C 140.862 322.784, 139.785 309.117, 140.160 282.931 C 140.488 260.029, 140.583 259.052, 142.780 256.082 L 145.060 253 133.957 253 L 122.855 253 124.927 255.635 M 179.076 255.580 L 181.500 258.160 181.500 288.830 C 181.500 321.834, 181.303 323.205, 176.373 324.443 C 170.408 325.940, 166.211 321.525, 160.494 307.738 C 158.952 304.019, 157.493 301.173, 157.253 301.414 C 156.350 302.316, 159.402 324.088, 160.566 325.055 C 161.235 325.610, 166.168 326.076, 171.529 326.091 C 180.495 326.115, 181.638 325.892, 185.797 323.309 C 194.060 318.176, 194.425 316.652, 195 284.852 C 195.459 259.470, 195.656 257.032, 197.405 255.102 L 199.310 253 187.981 253 L 176.651 253 179.076 255.580 M 326.006 303.167 C 326.003 304.633, 326.348 305.983, 326.774 306.167 C 327.199 306.350, 329.787 309.425, 332.524 313 C 335.261 316.575, 337.815 319.738, 338.200 320.028 C 338.585 320.319, 339.344 321.669, 339.887 323.028 C 340.452 324.444, 340.900 324.828, 340.937 323.927 C 340.971 323.062, 338.218 318.562, 334.818 313.927 C 331.418 309.292, 328.046 304.375, 327.324 303 L 326.012 300.500 326.006 303.167 M 353.590 313 C 351.989 318.775, 350.478 324.063, 350.233 324.750 C 349.896 325.693, 352.079 326, 359.110 326 L 368.434 326 365.595 323.750 C 360.995 320.104, 357.747 314.096, 357.094 308.023 L 356.500 302.500 353.590 313 M 426.590 313 C 424.989 318.775, 423.478 324.063, 423.233 324.750 C 422.896 325.693, 425.084 326, 432.132 326 L 441.478 326 437.847 322.750 C 432.604 318.058, 430.810 314.685, 430.115 308.219 L 429.500 302.500 426.590 313 M 212.824 305.500 C 212.124 306.608, 207 323.948, 207 325.207 C 207 325.643, 211.085 326, 216.077 326 L 225.153 326 222.132 323.458 C 217.805 319.817, 214.938 314.717, 214.144 309.247 C 213.765 306.636, 213.171 304.950, 212.824 305.500"
        stroke="none" fill="#edefef" fill-rule="evenodd" />
</svg>